<?xml version="1.0" encoding="UTF-8"?>
<svg width="552px" height="368px" viewBox="0 0 552 368" version="1.1" xmlns="http://www.w3.org/2000/svg" xmlns:xlink="http://www.w3.org/1999/xlink">
    <!-- Generator: Sketch 60.1 (88133) - https://sketch.com -->
    <title>Group 6</title>
    <desc>Created with Sketch.</desc>
    <g id="Page-1" stroke="none" stroke-width="1" fill="none" fill-rule="evenodd">
        <g id="Homepage" transform="translate(-732.000000, -1241.000000)">
            <g id="Group-6" transform="translate(732.000000, 1241.000000)">
                <rect id="Rectangle-Copy-4" fill="#4C7F7A" x="0" y="0" width="552" height="368" rx="3"></rect>
                <path d="M491,61 L552,61 L552,62 C552,95.6893697 524.68937,123 491,123 L491,123 L491,123 L491,61 Z" id="Rectangle-Copy-27" fill="#79A899" transform="translate(521.500000, 92.000000) scale(1, -1) translate(-521.500000, -92.000000) "></path>
                <rect id="Rectangle-Copy-31" fill="#004B7E" x="429" y="123" width="62" height="61"></rect>
                <rect id="Rectangle-Copy-36" fill="#ED8750" x="429" y="307" width="62" height="61"></rect>
                <rect id="Rectangle-Copy-37" fill="#004B7E" x="368" y="245" width="61" height="62"></rect>
                <path d="M552,184 L552,184 L552,184 L552,245 L491,245 C491,211.31063 518.31063,184 552,184 Z" id="Rectangle-Copy-38" fill="#79A899"></path>
                <path d="M552,307 L552,307 L552,307 L552,368 L491,368 C491,334.31063 518.31063,307 552,307 Z" id="Rectangle-Copy-39" fill="#EAB45B"></path>
                <path d="M491,245 L491,245 L491,245 L491,307 L429,307 C429,272.758346 456.758346,245 491,245 Z" id="Rectangle-Copy-40" fill="#79A899"></path>
                <path d="M368,61 L429,61 L429,122 C395.31063,122 368,94.6893697 368,61 L368,61 L368,61 Z" id="Rectangle-Copy-41" fill="#F2F6F8"></path>
                <path d="M368,184 L429,184 L429,245 C395.31063,245 368,217.68937 368,184 L368,184 L368,184 Z" id="Rectangle-Copy-43" fill="#EAB45B" transform="translate(398.500000, 214.500000) scale(1, -1) translate(-398.500000, -214.500000) "></path>
            </g>
        </g>
    </g>
</svg>