<?xml version="1.0" encoding="UTF-8"?>
<svg width="329px" height="395px" viewBox="0 0 329 395" version="1.1" xmlns="http://www.w3.org/2000/svg" xmlns:xlink="http://www.w3.org/1999/xlink">
    <!-- Generator: Sketch 61.2 (89653) - https://sketch.com -->
    <title>Group</title>
    <desc>Created with Sketch.</desc>
    <g id="Page-1" stroke="none" stroke-width="1" fill="none" fill-rule="evenodd">
        <g id="For-the-public" transform="translate(-1111.000000, -128.000000)">
            <g id="Group" transform="translate(1111.000000, 128.000000)">
                <path d="M131.666667,65.8333333 L197.5,65.8333333 C197.5,102.192079 168.025413,131.666667 131.666667,131.666667 L131.666667,131.666667 L131.666667,131.666667 L131.666667,65.8333333 Z" id="Rectangle-Copy-27" fill="#79A899" transform="translate(164.583333, 98.750000) scale(1, -1) translate(-164.583333, -98.750000) "></path>
                <rect id="Rectangle-Copy-31" fill="#004B7E" x="65.8333333" y="131.666667" width="65.8333333" height="65.8333333"></rect>
                <rect id="Rectangle-Copy-36" fill="#ED8750" x="65.8333333" y="263.333333" width="65.8333333" height="65.8333333"></rect>
                <path d="M131.666667,329.166667 L131.666667,329.166667 L131.666667,329.166667 L131.666667,395 L65.8333333,395 C65.8333333,358.641254 95.3079206,329.166667 131.666667,329.166667 Z" id="Rectangle-Copy-39" fill="#EAB45B"></path>
                <path d="M65.8333333,263.333333 L65.8333333,263.333333 L65.8333333,263.333333 L65.8333333,329.166667 L0,329.166667 C-4.45266219e-15,292.807921 29.4745873,263.333333 65.8333333,263.333333 Z" id="Rectangle-Copy-40" fill="#79A899"></path>
                <path d="M0,65.8333333 L65.8333333,65.8333333 L65.8333333,131.666667 C29.4745873,131.666667 4.45266219e-15,102.192079 0,65.8333333 L0,65.8333333 L0,65.8333333 Z" id="Rectangle-Copy-41" fill="#F2F6F8"></path>
                <path d="M0,197.5 L65.8333333,197.5 L65.8333333,263.333333 C29.4745873,263.333333 4.45266219e-15,233.858746 0,197.5 L0,197.5 L0,197.5 Z" id="Rectangle-Copy-43" fill="#EAB45B" transform="translate(32.916667, 230.416667) scale(1, -1) translate(-32.916667, -230.416667) "></path>
                <path d="M263.333333,131.666667 L329.166667,131.666667 C329.166667,168.025413 299.692079,197.5 263.333333,197.5 L263.333333,197.5 L263.333333,197.5 L263.333333,131.666667 Z" id="Rectangle-Copy-45" fill="#79A899" transform="translate(296.250000, 164.583333) scale(-1, -1) translate(-296.250000, -164.583333) "></path>
                <rect id="Rectangle-Copy-47" fill="#ED8750" transform="translate(230.416667, 362.083333) scale(-1, -1) translate(-230.416667, -362.083333) " x="197.5" y="329.166667" width="65.8333333" height="65.8333333"></rect>
                <path d="M329.166667,263.333333 L329.166667,263.333333 L329.166667,263.333333 L329.166667,329.166667 L263.333333,329.166667 C263.333333,292.807921 292.807921,263.333333 329.166667,263.333333 Z" id="Rectangle-Copy-50" fill="#EAB45B" transform="translate(296.250000, 296.250000) scale(-1, -1) translate(-296.250000, -296.250000) "></path>
                <path d="M197.5,0 L263.333333,0 L263.333333,65.8333333 C226.974587,65.8333333 197.5,36.358746 197.5,-2.84217094e-14 L197.5,0 L197.5,0 Z" id="Rectangle-Copy-53" fill="#004B7E" transform="translate(230.416667, 32.916667) scale(-1, -1) translate(-230.416667, -32.916667) "></path>
                <path d="M131.666667,197.5 L197.5,197.5 L197.5,263.333333 C161.141254,263.333333 131.666667,233.858746 131.666667,197.5 L131.666667,197.5 L131.666667,197.5 Z" id="Rectangle-Copy-54" fill="#EAB45B" transform="translate(164.583333, 230.416667) scale(-1, -1) translate(-164.583333, -230.416667) "></path>
                <path d="M197.5,197.5 L263.333333,197.5 C263.333333,233.858746 233.858746,263.333333 197.5,263.333333 L197.5,263.333333 L197.5,263.333333 L197.5,197.5 Z" id="Rectangle-Copy-55" fill="#F2F6F8" transform="translate(230.416667, 230.416667) scale(-1, -1) translate(-230.416667, -230.416667) "></path>
            </g>
        </g>
    </g>
</svg>