<?xml version="1.0" encoding="UTF-8"?>
<svg width="256px" height="81px" viewBox="0 0 256 81" version="1.1" xmlns="http://www.w3.org/2000/svg" xmlns:xlink="http://www.w3.org/1999/xlink">
    <!-- Generator: Sketch 60.1 (88133) - https://sketch.com -->
    <title>Group 86</title>
    <desc>Created with Sketch.</desc>
    <defs>
        <polygon id="path-1" points="0.533106939 0.8692 18.5385796 0.8692 18.5385796 25.4742 0.533106939 25.4742"></polygon>
        <polygon id="path-3" points="0.634048261 0.6594 10.2637192 0.6594 10.2637192 15 0.634048261 15"></polygon>
        <polygon id="path-5" points="0.270837551 0.908 10.1793959 0.908 10.1793959 14.75 0.270837551 14.75"></polygon>
    </defs>
    <g id="Symbols" stroke="none" stroke-width="1" fill="none" fill-rule="evenodd">
        <g id="Desktop-Navbar" transform="translate(-156.000000, -24.000000)">
            <g id="Group">
                <g id="Group-86" transform="translate(156.000000, 23.000000)">
                    <polygon id="Fill-1" fill="#D14D3C" points="67.7010286 65.7835 84.6252408 65.7835 84.6252408 49.5755 67.7010286 49.5755"></polygon>
                    <polygon id="Fill-2" fill="#79A898" points="0.000940408163 17.1934 0.000940408163 33.3904 0.00407510204 33.3914 16.9251527 33.3914 16.9251527 17.1934"></polygon>
                    <polygon id="Fill-3" fill="#346187" points="16.9252571 49.5865 33.853649 49.5865 33.853649 33.3895 16.9252571 33.3895"></polygon>
                    <polygon id="Fill-4" fill="#D14D3C" points="50.7757714 49.5885 67.7010286 49.5885 67.7010286 33.3905 50.7757714 33.3905"></polygon>
                    <polygon id="Fill-5" fill="#DD6A45" points="67.7020735 49.5885 84.6273306 49.5885 84.6273306 33.3905 67.7020735 33.3905"></polygon>
                    <polygon id="Fill-6" fill="#D14D3C" points="33.8515592 33.4035 50.7778612 33.4035 50.7778612 17.1935 33.8515592 17.1935"></polygon>
                    <polygon id="Fill-7" fill="#DD6A45" points="33.8515592 49.5925 50.7778612 49.5925 50.7778612 33.4035 33.8515592 33.4035"></polygon>
                    <g id="Group-14" transform="translate(0.000000, 0.974500)">
                        <path d="M50.7780702,16.2168 L33.8517682,16.2168 L33.8517682,0.0278 L33.8622171,0.0278 C43.2046498,0.0278 50.7780702,7.2758 50.7780702,16.2168" id="Fill-8" fill="#ED8650"></path>
                        <path d="M16.9264065,16.2168 L0.000104489796,16.2168 C0.000104489796,7.2758 7.5735249,0.0278 16.9159576,0.0278 L16.9264065,0.0278 L16.9264065,16.2168 Z" id="Fill-10" fill="#A9DBD7"></path>
                        <path d="M16.9264065,48.601 L16.9159576,48.601 C7.5735249,48.601 0.000104489796,41.353 0.000104489796,32.412 L16.9264065,32.412 L16.9264065,48.601 Z" id="Fill-12" fill="#528984"></path>
                    </g>
                    <polygon id="Fill-15" fill="#79A898" points="118.475337 65.781 118.475337 49.584 118.473247 49.583 101.551125 49.583 101.551125 65.781"></polygon>
                    <polygon id="Fill-16" fill="#E9B35B" points="84.6254498 65.779 84.6254498 81.974 101.549662 81.974 101.550707 81.974 101.550707 65.779"></polygon>
                    <polygon id="Fill-17" fill="#346187" points="84.6252408 49.5855 101.551543 49.5855 101.551543 33.3885 84.6252408 33.3885"></polygon>
                    <g id="Group-28" transform="translate(33.436735, 16.974500)">
                        <path d="M34.2617861,48.8087 L51.1880882,48.8087 L51.1880882,64.9977 L51.1776392,64.9977 C41.8352065,64.9977 34.2617861,57.7497 34.2617861,48.8087" id="Fill-18" fill="#ED8650"></path>
                        <path d="M0.417436735,32.6385 L17.3437388,32.6385 L17.3437388,48.8275 L17.3332898,48.8275 C7.99085714,48.8275 0.417436735,41.5795 0.417436735,32.6385" id="Fill-20" fill="#ED8650"></path>
                        <path d="M34.2617861,0.2235 L34.2722351,0.2235 C43.6146678,0.2235 51.1880882,7.4715 51.1880882,16.4125 L34.2617861,16.4125 L34.2617861,0.2235 Z" id="Fill-22" fill="#ED8650"></path>
                        <path d="M68.1136588,48.8087 L85.0399608,48.8087 C85.0399608,57.7497 77.4665404,64.9977 68.1241078,64.9977 L68.1136588,64.9977 L68.1136588,48.8087 Z" id="Fill-24" fill="#A9DBD7"></path>
                        <path d="M68.1136588,16.4245 L68.1241078,16.4245 C77.4665404,16.4245 85.0399608,23.6725 85.0399608,32.6135 L68.1136588,32.6135 L68.1136588,16.4245 Z" id="Fill-26" fill="#528984"></path>
                    </g>
                    <polygon id="Fill-29" fill="#E9B35B" points="16.9252571 17.1965 33.8515592 17.1965 33.8515592 1.0005 16.9252571 1.0005"></polygon>
                    <g id="Group-85" transform="translate(134.791837, 24.974500)">
                        <path d="M0.608966531,3.0442 C0.608966531,1.2732 1.60684408,0.3182 3.43332571,0.3182 C5.26189714,0.3182 6.25977469,1.2732 6.25977469,3.0442 L6.25977469,5.4062 C6.25977469,7.1772 5.26189714,8.1322 3.43332571,8.1322 C1.60684408,8.1322 0.608966531,7.1772 0.608966531,5.4062 L0.608966531,3.0442 Z M1.67894204,5.2822 C1.67894204,6.6002 2.24841143,7.2352 3.43332571,7.2352 C4.6203298,7.2352 5.19084408,6.6002 5.19084408,5.2822 L5.19084408,3.1702 C5.19084408,1.8512 4.6203298,1.2152 3.43332571,1.2152 C2.24841143,1.2152 1.67894204,1.8512 1.67894204,3.1702 L1.67894204,5.2822 Z" id="Fill-30" fill="#004B7D"></path>
                        <path d="M11.9393176,3.8053 C12.0814237,3.8053 12.1671053,3.8843 12.1671053,4.0203 L12.1671053,4.4873 C12.1671053,4.6233 12.0814237,4.7023 11.9393176,4.7023 L8.93732571,4.7023 L8.93732571,7.7803 C8.93732571,7.9173 8.85477878,7.9953 8.71267265,7.9953 L8.09513796,7.9953 C7.95303184,7.9953 7.8704849,7.9173 7.8704849,7.7803 L7.8704849,0.6703 C7.8704849,0.5333 7.95303184,0.4543 8.09513796,0.4543 L12.4628114,0.4543 C12.6049176,0.4543 12.6874645,0.5333 12.6874645,0.6703 L12.6874645,1.1363 C12.6874645,1.2733 12.6049176,1.3523 12.4628114,1.3523 L8.93732571,1.3523 L8.93732571,3.8053 L11.9393176,3.8053 Z" id="Fill-32" fill="#004B7D"></path>
                        <path d="M17.9395396,3.8053 C18.0816457,3.8053 18.1662824,3.8843 18.1662824,4.0203 L18.1662824,4.4873 C18.1662824,4.6233 18.0816457,4.7023 17.9395396,4.7023 L14.9375478,4.7023 L14.9375478,7.7803 C14.9375478,7.9173 14.8550008,7.9953 14.7118498,7.9953 L14.09536,7.9953 C13.9532539,7.9953 13.8707069,7.9173 13.8707069,7.7803 L13.8707069,0.6703 C13.8707069,0.5333 13.9532539,0.4543 14.09536,0.4543 L18.4630335,0.4543 C18.6051396,0.4543 18.6876865,0.5333 18.6876865,0.6703 L18.6876865,1.1363 C18.6876865,1.2733 18.6051396,1.3523 18.4630335,1.3523 L14.9375478,1.3523 L14.9375478,3.8053 L17.9395396,3.8053 Z" id="Fill-34" fill="#004B7D"></path>
                        <path d="M20.9395461,7.7806 C20.9395461,7.9166 20.8569992,7.9956 20.7148931,7.9956 L20.0973584,7.9956 C19.9552522,7.9956 19.8727053,7.9166 19.8727053,7.7806 L19.8727053,0.6696 C19.8727053,0.5336 19.9552522,0.4546 20.0973584,0.4546 L20.7148931,0.4546 C20.8569992,0.4546 20.9395461,0.5336 20.9395461,0.6696 L20.9395461,7.7806 Z" id="Fill-36" fill="#004B7D"></path>
                        <path d="M26.9484408,6.361 C27.0194939,6.225 27.1260735,6.19 27.2577306,6.269 L27.6965878,6.508 C27.8146612,6.576 27.8616816,6.679 27.7906286,6.804 C27.2932571,7.689 26.4625633,8.132 25.3110857,8.132 C23.5190857,8.132 22.5452408,7.177 22.5452408,5.406 L22.5452408,3.044 C22.5452408,1.273 23.5190857,0.318 25.3110857,0.318 C26.4740571,0.318 27.304751,0.762 27.7906286,1.648 C27.8616816,1.772 27.8261551,1.874 27.6965878,1.942 L27.2577306,2.181 C27.1260735,2.26 27.0194939,2.226 26.9484408,2.102 C26.6161633,1.522 26.0822204,1.216 25.3110857,1.216 C24.171102,1.216 23.6141714,1.863 23.6141714,3.17 L23.6141714,5.282 C23.6141714,6.587 24.171102,7.235 25.3110857,7.235 C26.0822204,7.235 26.6161633,6.928 26.9484408,6.361" id="Fill-38" fill="#004B7D"></path>
                        <path d="M33.2714318,3.737 C33.413538,3.737 33.4960849,3.816 33.4960849,3.952 L33.4960849,4.419 C33.4960849,4.555 33.413538,4.634 33.2714318,4.634 L30.1492767,4.634 L30.1492767,7.099 L33.791791,7.099 C33.934942,7.099 34.017489,7.177 34.017489,7.314 L34.017489,7.781 C34.017489,7.917 33.934942,7.996 33.791791,7.996 L29.307089,7.996 C29.1649829,7.996 29.0824359,7.917 29.0824359,7.781 L29.0824359,0.67 C29.0824359,0.533 29.1649829,0.454 29.307089,0.454 L33.791791,0.454 C33.934942,0.454 34.017489,0.533 34.017489,0.67 L34.017489,1.137 C34.017489,1.273 33.934942,1.352 33.791791,1.352 L30.1492767,1.352 L30.1492767,3.737 L33.2714318,3.737 Z" id="Fill-40" fill="#004B7D"></path>
                        <path d="M37.75488,3.0442 C37.75488,1.2732 38.7527576,0.3182 40.5792392,0.3182 C42.4078106,0.3182 43.4056882,1.2732 43.4056882,3.0442 L43.4056882,5.4062 C43.4056882,7.1772 42.4078106,8.1322 40.5792392,8.1322 C38.7527576,8.1322 37.75488,7.1772 37.75488,5.4062 L37.75488,3.0442 Z M38.8238106,5.2822 C38.8238106,6.6002 39.3943249,7.2352 40.5792392,7.2352 C41.7651984,7.2352 42.3357127,6.6002 42.3357127,5.2822 L42.3357127,3.1702 C42.3357127,1.8512 41.7651984,1.2152 40.5792392,1.2152 C39.3943249,1.2152 38.8238106,1.8512 38.8238106,3.1702 L38.8238106,5.2822 Z" id="Fill-42" fill="#004B7D"></path>
                        <path d="M49.0847086,3.8053 C49.2268147,3.8053 49.3114514,3.8843 49.3114514,4.0203 L49.3114514,4.4873 C49.3114514,4.6233 49.2268147,4.7023 49.0847086,4.7023 L46.0827167,4.7023 L46.0827167,7.7803 C46.0827167,7.9173 46.0001698,7.9953 45.8570188,7.9953 L45.240529,7.9953 C45.0984229,7.9953 45.014831,7.9173 45.014831,7.7803 L45.014831,0.6703 C45.014831,0.5333 45.0984229,0.4543 45.240529,0.4543 L49.6082024,0.4543 C49.7503086,0.4543 49.8328555,0.5333 49.8328555,0.6703 L49.8328555,1.1363 C49.8328555,1.2733 49.7503086,1.3523 49.6082024,1.3523 L46.0827167,1.3523 L46.0827167,3.8053 L49.0847086,3.8053 Z" id="Fill-44" fill="#004B7D"></path>
                        <path d="M56.0869878,7.7806 C56.0869878,7.9166 56.0044408,7.9956 55.8623347,7.9956 L55.2448,7.9956 C55.1026939,7.9956 55.0201469,7.9166 55.0201469,7.7806 L55.0201469,1.3516 L53.0849959,1.3516 C52.9439347,1.3516 52.859298,1.2726 52.859298,1.1366 L52.859298,0.6696 C52.859298,0.5336 52.9439347,0.4546 53.0849959,0.4546 L58.0336327,0.4546 C58.1757388,0.4546 58.2603755,0.5336 58.2603755,0.6696 L58.2603755,1.1366 C58.2603755,1.2726 58.1757388,1.3516 58.0336327,1.3516 L56.0869878,1.3516 L56.0869878,7.7806 Z" id="Fill-46" fill="#004B7D"></path>
                        <path d="M64.9466776,7.7806 C64.9466776,7.9166 64.8641306,7.9956 64.7220245,7.9956 L64.1044898,7.9956 C63.9623837,7.9956 63.8798367,7.9166 63.8798367,7.7806 L63.8798367,4.6236 L60.4964571,4.6236 L60.4964571,7.7806 C60.4964571,7.9166 60.4149551,7.9956 60.2718041,7.9956 L59.6553143,7.9956 C59.5121633,7.9956 59.4296163,7.9166 59.4296163,7.7806 L59.4296163,0.6696 C59.4296163,0.5336 59.5121633,0.4546 59.6553143,0.4546 L60.2718041,0.4546 C60.4149551,0.4546 60.4964571,0.5336 60.4964571,0.6696 L60.4964571,3.7266 L63.8798367,3.7266 L63.8798367,0.6696 C63.8798367,0.5336 63.9623837,0.4546 64.1044898,0.4546 L64.7220245,0.4546 C64.8641306,0.4546 64.9466776,0.5336 64.9466776,0.6696 L64.9466776,7.7806 Z" id="Fill-48" fill="#004B7D"></path>
                        <path d="M71.0226547,3.737 C71.1647608,3.737 71.2473078,3.816 71.2473078,3.952 L71.2473078,4.419 C71.2473078,4.555 71.1647608,4.634 71.0226547,4.634 L67.8994547,4.634 L67.8994547,7.099 L71.5440588,7.099 C71.6861649,7.099 71.7687118,7.177 71.7687118,7.314 L71.7687118,7.781 C71.7687118,7.917 71.6861649,7.996 71.5440588,7.996 L67.0583118,7.996 C66.9151608,7.996 66.8326139,7.917 66.8326139,7.781 L66.8326139,0.67 C66.8326139,0.533 66.9151608,0.454 67.0583118,0.454 L71.5440588,0.454 C71.6861649,0.454 71.7687118,0.533 71.7687118,0.67 L71.7687118,1.137 C71.7687118,1.273 71.6861649,1.352 71.5440588,1.352 L67.8994547,1.352 L67.8994547,3.737 L71.0226547,3.737 Z" id="Fill-50" fill="#004B7D"></path>
                        <path d="M18.6138122,37.7702 C18.6138122,38.2162 18.3442286,38.4742 17.8782041,38.4742 L15.8657306,38.4742 C15.3997061,38.4742 15.1301224,38.2162 15.1301224,37.7702 L15.1301224,27.4682 L4.0949551,27.4682 L4.0949551,37.7702 C4.0949551,38.2162 3.82223673,38.4742 3.35934694,38.4742 L1.34478367,38.4742 C0.88084898,38.4742 0.60917551,38.2162 0.60917551,37.7702 L0.60917551,14.5742 C0.60917551,14.1282 0.88084898,13.8692 1.34478367,13.8692 L3.35934694,13.8692 C3.82223673,13.8692 4.0949551,14.1282 4.0949551,14.5742 L4.0949551,24.5412 L15.1301224,24.5412 L15.1301224,14.5742 C15.1301224,14.1282 15.3997061,13.8692 15.8657306,13.8692 L17.8782041,13.8692 C18.3442286,13.8692 18.6138122,14.1282 18.6138122,14.5742 L18.6138122,37.7702 Z" id="Fill-52" fill="#004B7D"></path>
                        <path d="M38.3964473,24.5795 C38.8624718,24.5795 39.1320555,24.8385 39.1320555,25.2815 L39.1320555,26.8015 C39.1320555,27.2475 38.8624718,27.5055 38.3964473,27.5055 L28.2139167,27.5055 L28.2139167,35.5475 L40.1017208,35.5475 C40.5646106,35.5475 40.8352392,35.8065 40.8352392,36.2525 L40.8352392,37.7705 C40.8352392,38.2155 40.5646106,38.4745 40.1017208,38.4745 L25.4637453,38.4745 C25.0008555,38.4745 24.7281371,38.2155 24.7281371,37.7705 L24.7281371,14.5735 C24.7281371,14.1285 25.0008555,13.8695 25.4637453,13.8695 L40.1017208,13.8695 C40.5646106,13.8695 40.8352392,14.1285 40.8352392,14.5735 L40.8352392,16.0945 C40.8352392,16.5375 40.5646106,16.7965 40.1017208,16.7965 L28.2139167,16.7965 L28.2139167,24.5795 L38.3964473,24.5795 Z" id="Fill-54" fill="#004B7D"></path>
                        <path d="M64.1415837,37.6587 C64.3369796,38.1777 64.0642612,38.4747 63.5219592,38.4747 L61.3537959,38.4747 C60.9274776,38.4747 60.656849,38.2897 60.5408653,37.8817 L59.0320327,33.3967 L48.5767837,33.3967 L47.067951,37.8817 C46.9509224,38.2897 46.6782041,38.4747 46.2550204,38.4747 L44.200751,38.4747 C43.6605388,38.4747 43.3878204,38.1777 43.5811265,37.6587 L51.7908898,14.4627 C51.9465796,14.0547 52.2172082,13.8697 52.680098,13.8697 L55.0436571,13.8697 C55.5075918,13.8697 55.7782204,14.0547 55.9339102,14.5007 L64.1415837,37.6587 Z M53.7657469,17.8727 L49.5830204,30.4707 L58.0623673,30.4707 L53.8430694,17.8727 L53.7657469,17.8727 Z" id="Fill-56" fill="#004B7D"></path>
                        <path d="M83.809698,37.7702 C83.809698,38.2162 83.5401143,38.4742 83.0740898,38.4742 L69.0181224,38.4742 C68.5552327,38.4742 68.2825143,38.2162 68.2825143,37.7702 L68.2825143,14.5742 C68.2825143,14.1282 68.5552327,13.8692 69.0181224,13.8692 L71.0326857,13.8692 C71.4966204,13.8692 71.7682939,14.1282 71.7682939,14.5742 L71.7682939,35.5482 L83.0740898,35.5482 C83.5401143,35.5482 83.809698,35.8062 83.809698,36.2522 L83.809698,37.7702 Z" id="Fill-58" fill="#004B7D"></path>
                        <path d="M92.0566596,37.7702 C92.0566596,38.2162 91.7849861,38.4742 91.3210514,38.4742 L89.3064882,38.4742 C88.8425535,38.4742 88.5729698,38.2162 88.5729698,37.7702 L88.5729698,16.7962 L82.2607412,16.7962 C81.7957616,16.7962 81.5251331,16.5372 81.5251331,16.0942 L81.5251331,14.5742 C81.5251331,14.1282 81.7957616,13.8692 82.2607412,13.8692 L98.4054596,13.8692 C98.8714841,13.8692 99.1421127,14.1282 99.1421127,14.5742 L99.1421127,16.0942 C99.1421127,16.5372 98.8714841,16.7962 98.4054596,16.7962 L92.0566596,16.7962 L92.0566596,37.7702 Z" id="Fill-60" fill="#004B7D"></path>
                        <g id="Group-64" transform="translate(102.400000, 13.000000)">
                            <mask id="mask-2" fill="white">
                                <use xlink:href="#path-1"></use>
                            </mask>
                            <g id="Clip-63"></g>
                            <path d="M18.5387886,24.7702 C18.5387886,25.2162 18.26816,25.4742 17.8031804,25.4742 L15.7907069,25.4742 C15.3246824,25.4742 15.0540539,25.2162 15.0540539,24.7702 L15.0540539,14.4682 L4.01993143,14.4682 L4.01993143,24.7702 C4.01993143,25.2162 3.74721306,25.4742 3.28432327,25.4742 L1.2687151,25.4742 C0.805825306,25.4742 0.533106939,25.2162 0.533106939,24.7702 L0.533106939,1.5742 C0.533106939,1.1282 0.805825306,0.8692 1.2687151,0.8692 L3.28432327,0.8692 C3.74721306,0.8692 4.01993143,1.1282 4.01993143,1.5742 L4.01993143,11.5412 L15.0540539,11.5412 L15.0540539,1.5742 C15.0540539,1.1282 15.3246824,0.8692 15.7907069,0.8692 L17.8031804,0.8692 C18.26816,0.8692 18.5387886,1.1282 18.5387886,1.5742 L18.5387886,24.7702 Z" id="Fill-62" fill="#004B7D" mask="url(#mask-2)"></path>
                        </g>
                        <path d="M0.608966531,47.6618 C0.608966531,44.3888 2.37275429,42.6598 5.68194612,42.6598 C9.01517061,42.6598 10.7789584,44.3888 10.7789584,47.6618 L10.7789584,51.9978 C10.7789584,55.2688 9.01517061,56.9998 5.68194612,56.9998 C2.37275429,56.9998 0.608966531,55.2688 0.608966531,51.9978 L0.608966531,47.6618 Z M2.02375837,51.7678 C2.02375837,54.4988 3.22225633,55.8108 5.68194612,55.8108 C8.16566857,55.8108 9.36416653,54.4988 9.36416653,51.7678 L9.36416653,47.8898 C9.36416653,45.1608 8.16566857,43.8468 5.68194612,43.8468 C3.22225633,43.8468 2.02375837,45.1608 2.02375837,47.8898 L2.02375837,51.7678 Z" id="Fill-65" fill="#004B7D"></path>
                        <path d="M27.970142,56.436 C27.970142,56.646 27.8614727,56.75 27.6441339,56.75 L26.8813584,56.75 C26.6640196,56.75 26.5553502,56.646 26.5553502,56.436 L26.5553502,44.806 L26.5334073,44.806 L21.6756767,56.499 C21.611938,56.666 21.4792359,56.75 21.28384,56.75 L20.5639053,56.75 C20.3685094,56.75 20.238942,56.666 20.1731135,56.499 L15.2955298,44.743 L15.2714971,44.743 L15.2714971,56.436 C15.2714971,56.646 15.1628278,56.75 14.9465339,56.75 L14.2265992,56.75 C14.0092604,56.75 13.900591,56.646 13.900591,56.436 L13.900591,43.222 C13.900591,43.014 14.0092604,42.908 14.2265992,42.908 L15.7082645,42.908 C15.9036604,42.908 16.0353176,42.992 16.0990563,43.159 L20.9348441,54.79 L25.748689,43.159 C25.8145176,42.992 25.9440849,42.908 26.1394808,42.908 L27.6441339,42.908 C27.8614727,42.908 27.970142,43.014 27.970142,43.222 L27.970142,56.436 Z" id="Fill-67" fill="#004B7D"></path>
                        <path d="M38.4576784,49.6841 C40.3092376,50.1001 41.1587396,51.1831 41.1587396,53.0811 C41.1587396,55.6031 39.6551314,56.7491 36.3229518,56.7491 L31.9667722,56.7491 C31.7494335,56.7491 31.641809,56.6461 31.641809,56.4361 L31.641809,43.2221 C31.641809,43.0141 31.7494335,42.9081 31.9667722,42.9081 L35.93216,42.9081 C39.2643396,42.9081 40.7669029,44.0141 40.7669029,46.4721 C40.7669029,48.1611 40.0260702,49.2031 38.4576784,49.6621 L38.4576784,49.6841 Z M35.93216,49.1201 C38.3051233,49.1201 39.3510661,48.3501 39.3510661,46.6191 C39.3510661,44.8671 38.3051233,44.0971 35.93216,44.0971 L33.0566008,44.0971 L33.0566008,49.1201 L35.93216,49.1201 Z M36.3020539,55.5621 C38.6750171,55.5621 39.7429029,54.7471 39.7429029,52.9351 C39.7429029,51.1221 38.6750171,50.3091 36.3020539,50.3091 L33.0566008,50.3091 L33.0566008,55.5621 L36.3020539,55.5621 Z" id="Fill-69" fill="#004B7D"></path>
                        <path d="M53.3186351,52.1629 C53.3186351,55.3319 51.6206759,56.9999 48.4838922,56.9999 C45.3471086,56.9999 43.6481045,55.3319 43.6481045,52.1629 L43.6481045,43.2219 C43.6481045,43.0139 43.7567739,42.9079 43.9741127,42.9079 L44.7379331,42.9079 C44.9552718,42.9079 45.0639412,43.0139 45.0639412,43.2219 L45.0639412,51.9749 C45.0639412,54.5829 46.1746678,55.8109 48.5047902,55.8109 C50.8349127,55.8109 51.9456392,54.5829 51.9456392,51.9749 L51.9456392,43.2219 C51.9456392,43.0139 52.0553535,42.9079 52.2737371,42.9079 L52.991582,42.9079 C53.2099657,42.9079 53.3186351,43.0139 53.3186351,43.2219 L53.3186351,52.1629 Z" id="Fill-71" fill="#004B7D"></path>
                        <path d="M61.3842024,42.9082 C64.7383249,42.9082 66.4582269,44.5132 66.4582269,47.6412 L66.4582269,52.0182 C66.4582269,55.1442 64.7383249,56.7492 61.3842024,56.7492 L57.0499657,56.7492 C56.8326269,56.7492 56.7239576,56.6462 56.7239576,56.4362 L56.7239576,43.2222 C56.7239576,43.0142 56.8326269,42.9082 57.0499657,42.9082 L61.3842024,42.9082 Z M65.0423902,47.8692 C65.0423902,45.3052 63.8449371,44.0972 61.3183739,44.0972 L58.1387494,44.0972 L58.1387494,55.5622 L61.3183739,55.5622 C63.8449371,55.5622 65.0423902,54.3522 65.0423902,51.7882 L65.0423902,47.8692 Z" id="Fill-73" fill="#004B7D"></path>
                        <g id="Group-77" transform="translate(67.918367, 42.000000)">
                            <mask id="mask-4" fill="white">
                                <use xlink:href="#path-3"></use>
                            </mask>
                            <g id="Clip-76"></g>
                            <path d="M9.76321306,2.4294 C9.89382531,2.5964 9.84993959,2.7434 9.69738449,2.8674 L9.17598041,3.2644 C9.00148245,3.4114 8.84788245,3.3684 8.7183151,3.2014 C7.99942531,2.3054 6.90959673,1.8474 5.47286204,1.8474 C3.51263347,1.8474 2.2702498,2.9104 2.2702498,4.5554 C2.2702498,6.0574 3.14273959,6.8084 5.86469878,7.2234 C9.1310498,7.7254 10.2637192,8.8714 10.2637192,11.0814 C10.2637192,13.4364 8.45709061,15.0004 5.71214367,15.0004 C3.51263347,15.0004 1.81258449,14.2914 0.701857959,12.9144 C0.593188571,12.7694 0.615131429,12.6234 0.767686531,12.4764 L1.22535184,12.0814 C1.3998498,11.9344 1.57434776,11.9574 1.7039151,12.1224 C2.59834776,13.2484 3.94731102,13.8104 5.6484049,13.8104 C7.60758857,13.8104 8.84788245,12.7474 8.84788245,11.1014 C8.84788245,9.6214 7.99942531,8.9124 5.29836408,8.4744 C2.00902531,7.9324 0.855457959,6.8494 0.855457959,4.5784 C0.855457959,2.2214 2.66104163,0.6594 5.40703347,0.6594 C7.34636408,0.6594 8.78205388,1.2424 9.76321306,2.4294" id="Fill-75" fill="#004B7D" mask="url(#mask-4)"></path>
                        </g>
                        <path d="M94.6982661,56.436 C94.6982661,56.646 94.5895967,56.75 94.3733029,56.75 L93.6084376,56.75 C93.3921437,56.75 93.2834743,56.646 93.2834743,56.436 L93.2834743,44.806 L93.2615314,44.806 L88.4038008,56.499 C88.340062,56.666 88.20736,56.75 88.0119641,56.75 L87.2920294,56.75 C87.0966335,56.75 86.9670661,56.666 86.9012376,56.499 L82.022609,44.743 L81.9996212,44.743 L81.9996212,56.436 C81.9996212,56.646 81.8909518,56.75 81.674658,56.75 L80.9547233,56.75 C80.7384294,56.75 80.6287151,56.646 80.6287151,56.436 L80.6287151,43.222 C80.6287151,43.014 80.7384294,42.908 80.9547233,42.908 L82.4363886,42.908 C82.6317845,42.908 82.7644865,42.992 82.8282253,43.159 L87.6629682,54.79 L92.4768131,43.159 C92.5426416,42.992 92.672209,42.908 92.8686498,42.908 L94.3733029,42.908 C94.5895967,42.908 94.6982661,43.014 94.6982661,43.222 L94.6982661,56.436 Z" id="Fill-78" fill="#004B7D"></path>
                        <path d="M98.605871,56.4991 C98.5421322,56.6661 98.4313731,56.7491 98.2359771,56.7491 L97.4523037,56.7491 C97.2119771,56.7491 97.1033078,56.6031 97.1900343,56.3951 L102.025822,43.1591 C102.091651,42.9921 102.20032,42.9081 102.395716,42.9081 L103.331944,42.9081 C103.528385,42.9081 103.63601,42.9921 103.702883,43.1591 L108.537626,56.3951 C108.625398,56.6031 108.516728,56.7491 108.275357,56.7491 L107.447798,56.7491 C107.252402,56.7491 107.143732,56.6661 107.077904,56.4991 L106.053904,53.6031 L99.6288261,53.6031 L98.605871,56.4991 Z M105.641169,52.4131 L102.853381,44.5761 L102.832483,44.5761 L100.065593,52.4131 L105.641169,52.4131 Z" id="Fill-80" fill="#004B7D"></path>
                        <g id="Group-84" transform="translate(110.759184, 42.000000)">
                            <mask id="mask-6" fill="white">
                                <use xlink:href="#path-5"></use>
                            </mask>
                            <g id="Clip-83"></g>
                            <path d="M10.1796049,14.436 C10.1796049,14.646 10.0709355,14.75 9.85359673,14.75 L9.04693551,14.75 C8.87243755,14.75 8.7428702,14.686 8.65614367,14.542 L1.66473143,3.118 L1.64174367,3.118 L1.64174367,14.436 C1.64174367,14.646 1.53307429,14.75 1.31573551,14.75 L0.595800816,14.75 C0.379506939,14.75 0.270837551,14.646 0.270837551,14.436 L0.270837551,1.222 C0.270837551,1.014 0.379506939,0.908 0.595800816,0.908 L1.55606204,0.908 C1.7284702,0.908 1.86012735,0.971 1.94789878,1.118 L8.78571102,12.332 L8.80869878,12.332 L8.80869878,1.222 C8.80869878,1.014 8.91736816,0.908 9.13470694,0.908 L9.85359673,0.908 C10.0709355,0.908 10.1796049,1.014 10.1796049,1.222 L10.1796049,14.436 Z" id="Fill-82" fill="#004B7D" mask="url(#mask-6)"></path>
                        </g>
                    </g>
                </g>
            </g>
        </g>
    </g>
</svg>