<?xml version="1.0" encoding="UTF-8"?>
<svg width="119px" height="81px" viewBox="0 0 119 81" version="1.1" xmlns="http://www.w3.org/2000/svg" xmlns:xlink="http://www.w3.org/1999/xlink">
    <!-- Generator: Sketch 60.1 (88133) - https://sketch.com -->
    <title>Group 86</title>
    <desc>Created with Sketch.</desc>
    <g id="Symbols" stroke="none" stroke-width="1" fill="none" fill-rule="evenodd">
        <g id="Desktop-footer" transform="translate(-156.000000, -64.000000)">
            <g id="Group-5">
                <g id="Group-86" transform="translate(156.000000, 63.000000)">
                    <polygon id="Fill-1" fill="#D14D3C" points="67.7010286 65.7835 84.6252408 65.7835 84.6252408 49.5755 67.7010286 49.5755"></polygon>
                    <polygon id="Fill-2" fill="#79A898" points="0.000940408163 17.1934 0.000940408163 33.3904 0.00407510204 33.3914 16.9251527 33.3914 16.9251527 17.1934"></polygon>
                    <polygon id="Fill-3" fill="#346187" points="16.9252571 49.5865 33.853649 49.5865 33.853649 33.3895 16.9252571 33.3895"></polygon>
                    <polygon id="Fill-4" fill="#D14D3C" points="50.7757714 49.5885 67.7010286 49.5885 67.7010286 33.3905 50.7757714 33.3905"></polygon>
                    <polygon id="Fill-5" fill="#DD6A45" points="67.7020735 49.5885 84.6273306 49.5885 84.6273306 33.3905 67.7020735 33.3905"></polygon>
                    <polygon id="Fill-6" fill="#D14D3C" points="33.8515592 33.4035 50.7778612 33.4035 50.7778612 17.1935 33.8515592 17.1935"></polygon>
                    <polygon id="Fill-7" fill="#DD6A45" points="33.8515592 49.5925 50.7778612 49.5925 50.7778612 33.4035 33.8515592 33.4035"></polygon>
                    <g id="Group-14" transform="translate(0.000000, 0.974500)">
                        <path d="M50.7780702,16.2168 L33.8517682,16.2168 L33.8517682,0.0278 L33.8622171,0.0278 C43.2046498,0.0278 50.7780702,7.2758 50.7780702,16.2168" id="Fill-8" fill="#ED8650"></path>
                        <path d="M16.9264065,16.2168 L0.000104489796,16.2168 C0.000104489796,7.2758 7.5735249,0.0278 16.9159576,0.0278 L16.9264065,0.0278 L16.9264065,16.2168 Z" id="Fill-10" fill="#A9DBD7"></path>
                        <path d="M16.9264065,48.601 L16.9159576,48.601 C7.5735249,48.601 0.000104489796,41.353 0.000104489796,32.412 L16.9264065,32.412 L16.9264065,48.601 Z" id="Fill-12" fill="#528984"></path>
                    </g>
                    <polygon id="Fill-15" fill="#79A898" points="118.475337 65.781 118.475337 49.584 118.473247 49.583 101.551125 49.583 101.551125 65.781"></polygon>
                    <polygon id="Fill-16" fill="#E9B35B" points="84.6254498 65.779 84.6254498 81.974 101.549662 81.974 101.550707 81.974 101.550707 65.779"></polygon>
                    <polygon id="Fill-17" fill="#346187" points="84.6252408 49.5855 101.551543 49.5855 101.551543 33.3885 84.6252408 33.3885"></polygon>
                    <g id="Group-28" transform="translate(33.436735, 16.974500)">
                        <path d="M34.2617861,48.8087 L51.1880882,48.8087 L51.1880882,64.9977 L51.1776392,64.9977 C41.8352065,64.9977 34.2617861,57.7497 34.2617861,48.8087" id="Fill-18" fill="#ED8650"></path>
                        <path d="M0.417436735,32.6385 L17.3437388,32.6385 L17.3437388,48.8275 L17.3332898,48.8275 C7.99085714,48.8275 0.417436735,41.5795 0.417436735,32.6385" id="Fill-20" fill="#ED8650"></path>
                        <path d="M34.2617861,0.2235 L34.2722351,0.2235 C43.6146678,0.2235 51.1880882,7.4715 51.1880882,16.4125 L34.2617861,16.4125 L34.2617861,0.2235 Z" id="Fill-22" fill="#ED8650"></path>
                        <path d="M68.1136588,48.8087 L85.0399608,48.8087 C85.0399608,57.7497 77.4665404,64.9977 68.1241078,64.9977 L68.1136588,64.9977 L68.1136588,48.8087 Z" id="Fill-24" fill="#A9DBD7"></path>
                        <path d="M68.1136588,16.4245 L68.1241078,16.4245 C77.4665404,16.4245 85.0399608,23.6725 85.0399608,32.6135 L68.1136588,32.6135 L68.1136588,16.4245 Z" id="Fill-26" fill="#528984"></path>
                    </g>
                    <polygon id="Fill-29" fill="#E9B35B" points="16.9252571 17.1965 33.8515592 17.1965 33.8515592 1.0005 16.9252571 1.0005"></polygon>
                </g>
            </g>
        </g>
    </g>
</svg>