<?xml version="1.0" encoding="UTF-8"?>
<svg width="51px" height="56px" viewBox="0 0 51 56" version="1.1" xmlns="http://www.w3.org/2000/svg" xmlns:xlink="http://www.w3.org/1999/xlink">
    <!-- Generator: Sketch 61.2 (89653) - https://sketch.com -->
    <title>writing icon</title>
    <desc>Created with Sketch.</desc>
    <g id="Page-1" stroke="none" stroke-width="1" fill="none" fill-rule="evenodd">
        <g id="For-the-public" transform="translate(-761.000000, -2390.000000)">
            <g id="Prefooter" transform="translate(0.000000, 2306.000000)">
                <g id="writing-icon" transform="translate(761.000000, 84.000000)">
                    <polygon id="Fill-1" fill="#004B7E" points="25.0953143 -7.10542736e-15 19.4113016 5.56373333 20.5490794 6.72426667 25.0953143 2.27555556 30.0105143 7.08673016 31.1466667 5.92294603"></polygon>
                    <polygon id="Fill-2" fill="#004B7E" points="41.7601829 18.5841371 48.5657194 25.2450133 48.5657194 53.858499 1.62588444 53.858499 1.62588444 25.2450133 8.42979556 18.5841371 7.29364317 17.4219784 0.000487619048 24.5590959 0.000487619048 55.4838959 50.1911162 55.4838959 50.1911162 24.5590959 42.8963352 17.4219784"></polygon>
                    <polygon id="Fill-3" fill="#004B7E" points="0.263314286 54.0715886 1.36208254 55.269506 21.2163048 37.0309283 20.1175365 35.8330108"></polygon>
                    <polygon id="Fill-4" fill="#004B7E" points="29.1664457 36.90496 48.8239949 55.2638171 49.9308902 54.0772775 30.2749663 35.7184203"></polygon>
                    <polygon id="Fill-5" fill="#DE6A45" points="43.1412825 29.2238222 41.5158857 29.2238222 41.5158857 7.12167619 8.67474286 7.12167619 8.67474286 29.2238222 7.04934603 29.2238222 7.04934603 5.49627937 43.1412825 5.49627937"></polygon>
                    <polygon id="Fill-6" fill="#004B7E" points="25.0953143 38.8330057 1.23773968 24.2093105 0.387657143 25.595774 25.0953143 40.7395962 49.8029714 25.595774 48.9528889 24.2093105"></polygon>
                    <polygon id="Fill-7" fill="#DE6A45" points="12.4131556 13.9494806 25.0945016 13.9494806 25.0945016 12.3224584 12.4131556 12.3224584"></polygon>
                    <polygon id="Fill-8" fill="#DE6A45" points="12.4131556 18.4989663 37.7758476 18.4989663 37.7758476 16.8735695 12.4131556 16.8735695"></polygon>
                    <polygon id="Fill-9" fill="#DE6A45" points="12.4131556 23.0500775 37.7758476 23.0500775 37.7758476 21.4246806 12.4131556 21.4246806"></polygon>
                    <polygon id="Fill-10" fill="#DE6A45" points="12.4131556 27.602814 37.7758476 27.602814 37.7758476 25.9774171 12.4131556 25.9774171"></polygon>
                    <polygon id="Fill-11" fill="#DE6A45" points="20.0037587 32.1539251 30.1852444 32.1539251 30.1852444 30.5285283 20.0037587 30.5285283"></polygon>
                </g>
            </g>
        </g>
    </g>
</svg>