<?xml version="1.0" encoding="UTF-8"?>
<svg width="64px" height="43px" viewBox="0 0 64 43" version="1.1" xmlns="http://www.w3.org/2000/svg" xmlns:xlink="http://www.w3.org/1999/xlink">
    <!-- Generator: Sketch 61.2 (89653) - https://sketch.com -->
    <title>online icon</title>
    <desc>Created with Sketch.</desc>
    <g id="Page-1" stroke="none" stroke-width="1" fill="none" fill-rule="evenodd">
        <g id="For-the-public" transform="translate(-470.000000, -2402.000000)">
            <g id="Prefooter" transform="translate(0.000000, 2306.000000)">
                <g id="online-icon" transform="translate(470.000000, 96.000000)">
                    <path d="M31.5361684,15.9341474 C29.7845895,15.9341474 28.3597474,17.3606737 28.3597474,19.1122526 C28.3597474,20.8638316 29.7845895,22.2886737 31.5361684,22.2886737 C33.2877474,22.2886737 34.7125895,20.8638316 34.7125895,19.1122526 C34.7125895,17.3606737 33.2877474,15.9341474 31.5361684,15.9341474 M31.5361684,23.9728842 C28.8565895,23.9728842 26.6755368,21.7935158 26.6755368,19.1122526 C26.6755368,16.4326737 28.8565895,14.2499368 31.5361684,14.2499368 C34.2157474,14.2499368 36.3968,16.4326737 36.3968,19.1122526 C36.3968,21.7935158 34.2157474,23.9728842 31.5361684,23.9728842" id="Fill-1" fill="#DE6A45"></path>
                    <path d="M31.5361684,28.6858105 C26.2561684,28.6858105 21.9614316,24.3910737 21.9614316,19.1110737 C21.9614316,13.8327579 26.2561684,9.53633684 31.5361684,9.53633684 C36.8161684,9.53633684 41.1109053,13.8327579 41.1109053,19.1110737 L41.1109053,19.3232842 C41.1109053,21.0866526 39.6742737,22.5232842 37.9109053,22.5232842 C36.1475368,22.5232842 34.7125895,21.0866526 34.7125895,19.3232842 L36.3968,19.3232842 C36.3968,20.1603368 37.0755368,20.8390737 37.9109053,20.8390737 C38.7462737,20.8390737 39.4266947,20.1603368 39.4266947,19.3232842 L39.4266947,19.1110737 C39.4266947,14.7607579 35.8864842,11.2205474 31.5361684,11.2205474 C27.1858526,11.2205474 23.6456421,14.7607579 23.6456421,19.1110737 C23.6456421,23.4630737 27.1858526,27.0016 31.5361684,27.0016 L31.5361684,28.6858105 Z" id="Fill-3" fill="#DE6A45"></path>
                    <path d="M58.6480842,37.3815579 L56.9638737,37.3815579 L56.9638737,2.92261053 C56.9638737,2.24050526 56.4080842,1.68471579 55.7259789,1.68471579 L7.34703158,1.68471579 C6.66492632,1.68471579 6.10913684,2.24050526 6.10913684,2.92261053 L6.10913684,37.3815579 L4.42492632,37.3815579 L4.42492632,2.92261053 C4.42492632,1.31082105 5.73524211,0.000505263158 7.34703158,0.000505263158 L55.7259789,0.000505263158 C57.3377684,0.000505263158 58.6480842,1.31082105 58.6480842,2.92261053 L58.6480842,37.3815579 Z" id="Fill-5" fill="#004B7E"></path>
                    <path d="M1.68421053,38.2236632 L1.68421053,39.3857684 C1.68421053,40.3693474 2.48421053,41.1710316 3.46947368,41.1710316 L59.6042105,41.1710316 C60.5877895,41.1710316 61.3877895,40.3693474 61.3877895,39.3857684 L61.3877895,38.2236632 L1.68421053,38.2236632 Z M59.6042105,42.8552421 L3.46947368,42.8552421 C1.55621053,42.8552421 0,41.2990316 0,39.3857684 L0,36.5394526 L63.072,36.5394526 L63.072,39.3857684 C63.072,41.2990316 61.5157895,42.8552421 59.6042105,42.8552421 L59.6042105,42.8552421 Z" id="Fill-7" fill="#004B7E"></path>
                </g>
            </g>
        </g>
    </g>
</svg>