<?xml version="1.0" encoding="UTF-8"?>
<svg width="43px" height="53px" viewBox="0 0 43 53" version="1.1" xmlns="http://www.w3.org/2000/svg" xmlns:xlink="http://www.w3.org/1999/xlink">
    <!-- Generator: Sketch 61.2 (89653) - https://sketch.com -->
    <title>phone icon</title>
    <desc>Created with Sketch.</desc>
    <defs>
        <polygon id="path-1" points="2.34808751e-05 0.387818182 38.6907882 0.387818182 38.6907882 52.3636364 2.34808751e-05 52.3636364"></polygon>
    </defs>
    <g id="Page-1" stroke="none" stroke-width="1" fill="none" fill-rule="evenodd">
        <g id="For-the-public" transform="translate(-1049.000000, -2393.000000)">
            <g id="Prefooter" transform="translate(0.000000, 2306.000000)">
                <g id="phone-icon" transform="translate(1049.000000, 86.000000)">
                    <path d="M37.9129091,29.4558545 L36.2994545,29.1825818 C37.7165455,20.8322182 32.1250909,13.6322182 26.1310909,11.7487636 L26.622,10.1876727 C33.4178182,12.3231273 39.4985455,20.1138545 37.9129091,29.4558545 M42.4030909,30.0073091 L40.7847273,29.7602182 C41.0154545,28.2514909 41.0792727,26.7378545 40.9729091,25.2618545 C40.7209091,21.8025818 39.6212727,18.5413091 37.7067273,15.5696727 C35.3078182,11.8485818 31.986,9.1584 27.8329091,7.5744 L27.3796364,7.38458182 L28.0096364,5.87421818 L28.4154545,6.0444 C32.9023636,7.75767273 36.4909091,10.6638545 39.0812727,14.6827636 C41.148,17.8884 42.3327273,21.4082182 42.6043636,25.1440364 C42.7205455,26.7427636 42.6518182,28.3774909 42.4030909,30.0073091" id="Fill-1" fill="#DE6A45"></path>
                    <path d="M42.4024364,30.0071455 L40.7857091,29.7600545 C41.0164364,28.2513273 41.0786182,26.7376909 40.9722545,25.2633273 C40.7202545,21.8024182 39.6222545,18.5411455 37.7060727,15.5695091 C35.3088,11.8484182 31.9853455,9.15823636 27.8322545,7.57423636 L27.3789818,7.38441818 L28.0089818,5.87405455 L28.4164364,6.04423636 C32.9017091,7.75750909 36.4902545,10.6636909 39.0822545,14.6826 C41.1473455,17.8882364 42.3337091,21.4080545 42.6037091,25.1438727 C42.7198909,26.7426 42.6528,28.3773273 42.4024364,30.0071455" id="Fill-3" fill="#D14D3C"></path>
                    <path d="M37.9129091,29.4558545 L36.2994545,29.1825818 C37.7165455,20.8322182 32.1250909,13.6322182 26.1310909,11.7487636 L26.622,10.1876727 C33.4178182,12.3231273 39.4985455,20.1138545 37.9129091,29.4558545" id="Fill-5" fill="#DE6A45"></path>
                    <g id="Group-9" transform="translate(0.000000, 1.248545)">
                        <mask id="mask-2" fill="white">
                            <use xlink:href="#path-1"></use>
                        </mask>
                        <g id="Clip-8"></g>
                        <path d="M10.2737455,36.3506727 C12.5499273,39.9375818 15.2564727,43.0843091 18.3213818,45.6992182 C20.9166545,47.9148545 23.3041091,49.3057636 25.8322909,50.0732182 C26.6815636,50.3317636 27.5897455,50.5821273 28.4782909,50.6786727 C29.1082909,50.7457636 29.7022909,50.7441273 30.2390182,50.6704909 C30.5990182,50.6230364 31.4679273,50.2663091 31.9702909,50.0290364 L36.5144727,47.4370364 C37.1117455,47.0786727 37.2082909,46.6908545 36.8433818,46.0657636 C36.6175636,45.6844909 36.3852,45.3048545 36.1512,44.9252182 L30.8673818,36.2279455 C30.3192,35.3328545 29.7677455,35.6355818 29.5615636,35.7517636 L24.8226545,38.6186727 C23.2239273,39.2437636 22.2339273,39.0637636 21.0393818,38.0230364 C20.6172,37.6548545 20.1082909,37.1214 19.5241091,36.4324909 C18.3541091,35.0546727 17.2610182,33.5148545 16.1826545,31.7246727 L13.6626545,27.5454 C12.5826545,25.7535818 11.7317455,24.0681273 11.0592,22.3908545 C10.7221091,21.5530364 10.4864727,20.8510364 10.3588364,20.3077636 C9.9972,18.7679455 10.3015636,17.8090364 11.4813818,16.7732182 L16.3708364,13.8163091 C16.5459273,13.7034 17.0744727,13.3597636 16.5344727,12.4548545 L11.3144727,3.72812727 C11.0870182,3.34358182 10.8595636,2.9574 10.6239273,2.57776364 C10.2426545,1.96249091 9.85647273,1.86758182 9.24447273,2.2374 L4.79192727,5.07158182 C4.40083636,5.3694 3.68083636,5.97321818 3.46974545,6.26776364 C3.15229091,6.71449091 2.87410909,7.23649091 2.64174545,7.82067273 C2.3112,8.65521818 2.10992727,9.57485455 1.94138182,10.4437636 C1.44065455,13.0374 1.5552,15.7979455 2.30138182,19.1295818 C3.17192727,23.0077636 4.69047273,26.8712182 6.81447273,30.6119455 C7.66374545,32.1075818 9.40156364,34.9728545 10.2737455,36.3506727 M29.3602909,52.3641273 C29.0182909,52.3641273 28.6648364,52.3444909 28.3048364,52.3052182 C27.2804727,52.1955818 26.2822909,51.9206727 25.3577455,51.6392182 C22.6053818,50.8030364 20.0313818,49.3123091 17.2593818,46.9461273 C14.0701091,44.2248545 11.2555636,40.9537636 8.89101818,37.2261273 C8.00901818,35.8352182 6.25156364,32.9355818 5.39247273,31.4203091 C3.18665455,27.5372182 1.61083636,23.5232182 0.705927273,19.4863091 C-0.0926181818,15.9288545 -0.210436364,12.9555818 0.336109091,10.1344909 C0.517745455,9.1854 0.740290909,8.1774 1.12156364,7.21685455 C1.40138182,6.50994545 1.74501818,5.87176364 2.13774545,5.31867273 C2.56974545,4.71321818 3.64974545,3.88685455 3.86083636,3.72812727 L8.38047273,0.848127273 C9.77629091,0.00212727273 11.1606545,0.339218182 12.0148364,1.7154 C12.2553818,2.10649091 12.4893818,2.50085455 12.7233818,2.89521818 L17.9417455,11.6170364 C18.7582909,12.9883091 18.4817455,14.3955818 17.2381091,15.2055818 L12.4435636,18.0888545 C11.8446545,18.6321273 11.7317455,18.9937636 11.9526545,19.9330364 C12.0606545,20.3977636 12.2717455,21.0195818 12.5777455,21.7821273 C13.2159273,23.3759455 14.0308364,24.9861273 15.0650182,26.7010364 L17.5833818,30.8786727 C18.6175636,32.5935818 19.6599273,34.0646727 20.7726545,35.3737636 C21.3028364,36.0004909 21.7544727,36.4750364 22.1144727,36.7908545 C22.8442909,37.4257636 23.2173818,37.4895818 24.1075636,37.1524909 L28.7401091,34.3379455 C30.0590182,33.5983091 31.4335636,34.0155818 32.2648364,35.3754 L37.5453818,44.0694 C37.7842909,44.4572182 38.0232,44.8450364 38.2539273,45.2394 C39.0737455,46.6384909 38.7235636,48.0212182 37.3392,48.8492182 L32.7246545,51.4804909 C32.4301091,51.6228545 31.1946545,52.1939455 30.4566545,52.2921273 C30.1064727,52.3395818 29.7399273,52.3641273 29.3602909,52.3641273" id="Fill-7" fill="#004B7E" mask="url(#mask-2)"></path>
                    </g>
                </g>
            </g>
        </g>
    </g>
</svg>