<?xml version="1.0" encoding="UTF-8"?>
<svg width="1440px" height="851px" viewBox="0 0 1440 851" version="1.1" xmlns="http://www.w3.org/2000/svg" xmlns:xlink="http://www.w3.org/1999/xlink">
    <!-- Generator: Sketch 61.2 (89653) - https://sketch.com -->
    <title>Group 4</title>
    <desc>Created with Sketch.</desc>
    <g id="Page-1" stroke="none" stroke-width="1" fill="none" fill-rule="evenodd">
        <g id="Homepage" transform="translate(0.000000, -1671.000000)">
            <g id="Group-4" transform="translate(-6.000000, 1671.000000)">
                <rect id="Rectangle-Copy-2" fill="#EAB45B" x="0" y="0" width="1446" height="851"></rect>
                <g id="Group-3" transform="translate(6.000000, 216.785156)">
                    <path d="M1284,287.214844 L1336,287.214844 C1336,315.933651 1312.71881,339.214844 1284,339.214844 L1284,339.214844 L1284,339.214844 L1284,287.214844 Z" id="Rectangle-Copy-74" fill="#D14D3C" transform="translate(1310.000000, 313.214844) scale(1, -1) translate(-1310.000000, -313.214844) "></path>
                    <path d="M104,53.2148438 L156,53.2148438 C156,81.9336507 132.718807,105.214844 104,105.214844 L104,105.214844 L104,105.214844 L104,53.2148438 Z" id="Rectangle-Copy-77" fill="#D14D3C" transform="translate(130.000000, 79.214844) scale(-1, 1) translate(-130.000000, -79.214844) "></path>
                    <rect id="Rectangle-Copy-78" fill="#012345" transform="translate(78.000000, 183.214844) scale(-1, 1) translate(-78.000000, -183.214844) " x="52" y="157.214844" width="52" height="52"></rect>
                    <path d="M104,261.214844 L104,261.214844 L104,261.214844 L104,313.214844 L52,313.214844 C52,284.496037 75.281193,261.214844 104,261.214844 Z" id="Rectangle-Copy-70" fill="#79A899" transform="translate(78.000000, 287.214844) scale(-1, 1) translate(-78.000000, -287.214844) "></path>
                    <path d="M104,0.21484375 L104,0.21484375 L104,0.21484375 L104,52.2148438 L52,52.2148438 C52,23.4960368 75.281193,0.21484375 104,0.21484375 Z" id="Rectangle-Copy-71" fill="#ED8750" transform="translate(78.000000, 26.214844) scale(-1, 1) translate(-78.000000, -26.214844) "></path>
                    <path d="M156,105.214844 L156,105.214844 L156,105.214844 L156,157.214844 L104,157.214844 C104,128.496037 127.281193,105.214844 156,105.214844 Z" id="Rectangle-Copy-79" fill="#79A899" transform="translate(130.000000, 131.214844) scale(-1, 1) translate(-130.000000, -131.214844) "></path>
                    <rect id="Rectangle-Copy-42" fill="#ED8750" transform="translate(130.000000, 287.214844) scale(-1, 1) translate(-130.000000, -287.214844) " x="104" y="261.214844" width="52" height="52"></rect>
                    <path d="M104,313.214844 C132.718807,313.214844 156,336.496037 156,365.214844 L156,365.214844 L156,365.214844 L104,365.214844 L104,313.214844 Z" id="Rectangle-Copy-80" fill="#DE6A45" transform="translate(130.000000, 339.214844) scale(-1, 1) translate(-130.000000, -339.214844) "></path>
                    <path d="M104,209.214844 L156,209.214844 C156,237.933651 132.718807,261.214844 104,261.214844 L104,261.214844 L104,261.214844 L104,209.214844 Z" id="Rectangle-Copy-81" fill="#FFFFFF" transform="translate(130.000000, 235.214844) scale(-1, 1) translate(-130.000000, -235.214844) "></path>
                    <path d="M52,157.214844 L52,157.214844 L52,157.214844 L52,209.214844 L0,209.214844 C-3.51703951e-15,180.496037 23.281193,157.214844 52,157.214844 Z" id="Rectangle-Copy-82" fill="#79A899" transform="translate(26.000000, 183.214844) scale(-1, 1) translate(-26.000000, -183.214844) "></path>
                    <rect id="Rectangle-Copy-44" fill="#D14D3C" transform="translate(26.000000, 235.214844) scale(-1, 1) translate(-26.000000, -235.214844) " x="0" y="209.214844" width="52" height="52"></rect>
                    <path d="M156.386719,261.265625 L208.386719,261.265625 C208.386719,289.984432 185.105526,313.265625 156.386719,313.265625 L156.386719,313.265625 L156.386719,313.265625 L156.386719,261.265625 Z" id="Rectangle-Copy-77" fill="#D14D3C" transform="translate(182.386719, 287.265625) scale(-1, 1) rotate(180.000000) translate(-182.386719, -287.265625) "></path>
                    <rect id="Rectangle-Copy-78" fill="#012345" transform="translate(338.000000, 79.214844) scale(-1, 1) rotate(180.000000) translate(-338.000000, -79.214844) " x="312" y="53.2148438" width="52" height="52"></rect>
                    <path d="M260.386719,53.265625 L260.386719,53.265625 L260.386719,53.265625 L260.386719,105.265625 L208.386719,105.265625 C208.386719,76.546818 231.667912,53.265625 260.386719,53.265625 Z" id="Rectangle-Copy-70" fill="#79A899" transform="translate(234.386719, 79.265625) scale(-1, 1) rotate(180.000000) translate(-234.386719, -79.265625) "></path>
                    <path d="M260.386719,314.265625 L260.386719,314.265625 L260.386719,314.265625 L260.386719,366.265625 L208.386719,366.265625 C208.386719,337.546818 231.667912,314.265625 260.386719,314.265625 Z" id="Rectangle-Copy-71" fill="#ED8750" transform="translate(234.386719, 340.265625) scale(-1, 1) rotate(180.000000) translate(-234.386719, -340.265625) "></path>
                    <path d="M208.386719,209.265625 L208.386719,209.265625 L208.386719,209.265625 L208.386719,261.265625 L156.386719,261.265625 C156.386719,232.546818 179.667912,209.265625 208.386719,209.265625 Z" id="Rectangle-Copy-79" fill="#79A899" transform="translate(182.386719, 235.265625) scale(-1, 1) rotate(180.000000) translate(-182.386719, -235.265625) "></path>
                    <rect id="Rectangle-Copy-42" fill="#ED8750" transform="translate(182.386719, 79.265625) scale(-1, 1) rotate(180.000000) translate(-182.386719, -79.265625) " x="156.386719" y="53.265625" width="52" height="52"></rect>
                    <path d="M156.386719,1.265625 C185.105526,1.265625 208.386719,24.546818 208.386719,53.265625 L208.386719,53.265625 L208.386719,53.265625 L156.386719,53.265625 L156.386719,1.265625 Z" id="Rectangle-Copy-80" fill="#DE6A45" transform="translate(182.386719, 27.265625) scale(-1, 1) rotate(180.000000) translate(-182.386719, -27.265625) "></path>
                    <path d="M209,209.214844 L261,209.214844 C261,237.933651 237.718807,261.214844 209,261.214844 L209,261.214844 L209,261.214844 L209,209.214844 Z" id="Rectangle-Copy-81" fill="#FFFFFF" transform="translate(235.000000, 235.214844) scale(-1, 1) rotate(180.000000) translate(-235.000000, -235.214844) "></path>
                    <path d="M312.386719,157.265625 L312.386719,157.265625 L312.386719,157.265625 L312.386719,209.265625 L260.386719,209.265625 C260.386719,180.546818 283.667912,157.265625 312.386719,157.265625 Z" id="Rectangle-Copy-82" fill="#79A899" transform="translate(286.386719, 183.265625) scale(-1, 1) rotate(180.000000) translate(-286.386719, -183.265625) "></path>
                    <rect id="Rectangle-Copy-44" fill="#D14D3C" transform="translate(286.386719, 131.265625) scale(-1, 1) rotate(180.000000) translate(-286.386719, -131.265625) " x="260.386719" y="105.265625" width="52" height="52"></rect>
                    <path d="M468.355469,261.429688 L520.355469,261.429688 C520.355469,290.148494 497.074276,313.429688 468.355469,313.429688 L468.355469,313.429688 L468.355469,313.429688 L468.355469,261.429688 Z" id="Rectangle-Copy-77" fill="#D14D3C" transform="translate(494.355469, 287.429688) scale(-1, 1) rotate(-180.000000) translate(-494.355469, -287.429688) "></path>
                    <path d="M572.355469,314.429688 L572.355469,314.429688 L572.355469,314.429688 L572.355469,366.429688 L520.355469,366.429688 C520.355469,337.710881 543.636662,314.429688 572.355469,314.429688 Z" id="Rectangle-Copy-71" fill="#ED8750" transform="translate(546.355469, 340.429688) scale(-1, 1) rotate(-180.000000) translate(-546.355469, -340.429688) "></path>
                    <path d="M520.355469,209.429688 L520.355469,209.429688 L520.355469,209.429688 L520.355469,261.429688 L468.355469,261.429688 C468.355469,232.710881 491.636662,209.429688 520.355469,209.429688 Z" id="Rectangle-Copy-79" fill="#79A899" transform="translate(494.355469, 235.429688) scale(-1, 1) rotate(-180.000000) translate(-494.355469, -235.429688) "></path>
                    <rect id="Rectangle-Copy-42" fill="#ED8750" transform="translate(494.355469, 79.429688) scale(-1, 1) rotate(-180.000000) translate(-494.355469, -79.429688) " x="468.355469" y="53.4296875" width="52" height="52"></rect>
                    <path d="M625,52.2148438 L677,52.2148438 C677,80.9336507 653.718807,104.214844 625,104.214844 L625,104.214844 L625,104.214844 L625,52.2148438 Z" id="Rectangle-Copy-81" fill="#FFFFFF" transform="translate(651.000000, 78.214844) scale(-1, 1) rotate(-180.000000) translate(-651.000000, -78.214844) "></path>
                    <rect id="Rectangle-Copy-44" fill="#D14D3C" transform="translate(598.355469, 131.429687) scale(-1, 1) rotate(-180.000000) translate(-598.355469, -131.429687) " x="572.355469" y="105.429687" width="52" height="52"></rect>
                    <path d="M415.96875,53.3789062 L467.96875,53.3789062 C467.96875,82.0977132 444.687557,105.378906 415.96875,105.378906 L415.96875,105.378906 L415.96875,105.378906 L415.96875,53.3789062 Z" id="Rectangle-Copy-77" fill="#D14D3C" transform="translate(441.968750, 79.378906) scale(-1, 1) translate(-441.968750, -79.378906) "></path>
                    <path d="M415.96875,261.378906 L415.96875,261.378906 L415.96875,261.378906 L415.96875,313.378906 L363.96875,313.378906 C363.96875,284.660099 387.249943,261.378906 415.96875,261.378906 Z" id="Rectangle-Copy-70" fill="#79A899" transform="translate(389.968750, 287.378906) scale(-1, 1) translate(-389.968750, -287.378906) "></path>
                    <path d="M467.96875,105.378906 L467.96875,105.378906 L467.96875,105.378906 L467.96875,157.378906 L415.96875,157.378906 C415.96875,128.660099 439.249943,105.378906 467.96875,105.378906 Z" id="Rectangle-Copy-79" fill="#79A899" transform="translate(441.968750, 131.378906) scale(-1, 1) translate(-441.968750, -131.378906) "></path>
                    <path d="M415.96875,313.378906 C444.687557,313.378906 467.96875,336.660099 467.96875,365.378906 L467.96875,365.378906 L467.96875,365.378906 L415.96875,365.378906 L415.96875,313.378906 Z" id="Rectangle-Copy-80" fill="#DE6A45" transform="translate(441.968750, 339.378906) scale(-1, 1) translate(-441.968750, -339.378906) "></path>
                    <path d="M364,313.214844 L416,313.214844 C416,341.933651 392.718807,365.214844 364,365.214844 L364,365.214844 L364,365.214844 L364,313.214844 Z" id="Rectangle-Copy-81" fill="#FFFFFF" transform="translate(390.000000, 339.214844) scale(-1, 1) translate(-390.000000, -339.214844) "></path>
                    <path d="M363.96875,157.378906 L363.96875,157.378906 L363.96875,157.378906 L363.96875,209.378906 L311.96875,209.378906 C311.96875,180.660099 335.249943,157.378906 363.96875,157.378906 Z" id="Rectangle-Copy-82" fill="#79A899" transform="translate(337.968750, 183.378906) scale(-1, 1) translate(-337.968750, -183.378906) "></path>
                    <rect id="Rectangle-Copy-44" fill="#D14D3C" transform="translate(337.968750, 235.378906) scale(-1, 1) translate(-337.968750, -235.378906) " x="311.96875" y="209.378906" width="52" height="52"></rect>
                    <path d="M728,53 L780,53 C780,81.718807 756.718807,105 728,105 L728,105 L728,105 L728,53 Z" id="Rectangle-Copy-77" fill="#D14D3C" transform="translate(754.000000, 79.000000) scale(-1, 1) translate(-754.000000, -79.000000) "></path>
                    <rect id="Rectangle-Copy-78" fill="#012345" transform="translate(702.000000, 183.000000) scale(-1, 1) translate(-702.000000, -183.000000) " x="676" y="157" width="52" height="52"></rect>
                    <path d="M728,261 L728,261 L728,261 L728,313 L676,313 C676,284.281193 699.281193,261 728,261 Z" id="Rectangle-Copy-70" fill="#79A899" transform="translate(702.000000, 287.000000) scale(-1, 1) translate(-702.000000, -287.000000) "></path>
                    <path d="M728,2.84217094e-14 L728,2.84217094e-14 L728,2.84217094e-14 L728,52 L676,52 C676,23.281193 699.281193,3.36972687e-14 728,2.84217094e-14 Z" id="Rectangle-Copy-71" fill="#ED8750" transform="translate(702.000000, 26.000000) scale(-1, 1) translate(-702.000000, -26.000000) "></path>
                    <path d="M780,105 L780,105 L780,105 L780,157 L728,157 C728,128.281193 751.281193,105 780,105 Z" id="Rectangle-Copy-79" fill="#79A899" transform="translate(754.000000, 131.000000) scale(-1, 1) translate(-754.000000, -131.000000) "></path>
                    <rect id="Rectangle-Copy-42" fill="#ED8750" transform="translate(754.000000, 287.000000) scale(-1, 1) translate(-754.000000, -287.000000) " x="728" y="261" width="52" height="52"></rect>
                    <path d="M728,313 C756.718807,313 780,336.281193 780,365 L780,365 L780,365 L728,365 L728,313 Z" id="Rectangle-Copy-80" fill="#DE6A45" transform="translate(754.000000, 339.000000) scale(-1, 1) translate(-754.000000, -339.000000) "></path>
                    <path d="M728,209 L780,209 C780,237.718807 756.718807,261 728,261 L728,261 L728,261 L728,209 Z" id="Rectangle-Copy-81" fill="#FFFFFF" transform="translate(754.000000, 235.000000) scale(-1, 1) translate(-754.000000, -235.000000) "></path>
                    <path d="M676,157 L676,157 L676,157 L676,209 L624,209 C624,180.281193 647.281193,157 676,157 Z" id="Rectangle-Copy-82" fill="#79A899" transform="translate(650.000000, 183.000000) scale(-1, 1) translate(-650.000000, -183.000000) "></path>
                    <rect id="Rectangle-Copy-44" fill="#D14D3C" transform="translate(599.000000, 287.214844) scale(-1, 1) translate(-599.000000, -287.214844) " x="573" y="261.214844" width="52" height="52"></rect>
                    <path d="M884.386719,314.050781 L884.386719,314.050781 L884.386719,314.050781 L884.386719,366.050781 L832.386719,366.050781 C832.386719,337.331974 855.667912,314.050781 884.386719,314.050781 Z" id="Rectangle-Copy-71" fill="#ED8750" transform="translate(858.386719, 340.050781) scale(-1, 1) rotate(180.000000) translate(-858.386719, -340.050781) "></path>
                    <path d="M832.386719,209.050781 L832.386719,209.050781 L832.386719,209.050781 L832.386719,261.050781 L780.386719,261.050781 C780.386719,232.331974 803.667912,209.050781 832.386719,209.050781 Z" id="Rectangle-Copy-79" fill="#79A899" transform="translate(806.386719, 235.050781) scale(-1, 1) rotate(180.000000) translate(-806.386719, -235.050781) "></path>
                    <path d="M780.386719,105.050781 L832.386719,105.050781 C832.386719,133.769588 809.105526,157.050781 780.386719,157.050781 L780.386719,157.050781 L780.386719,157.050781 L780.386719,105.050781 Z" id="Rectangle-Copy-81" fill="#FFFFFF" transform="translate(806.386719, 131.050781) scale(-1, 1) rotate(180.000000) translate(-806.386719, -131.050781) "></path>
                    <path d="M936.386719,157.050781 L936.386719,157.050781 L936.386719,157.050781 L936.386719,209.050781 L884.386719,209.050781 C884.386719,180.331974 907.667912,157.050781 936.386719,157.050781 Z" id="Rectangle-Copy-82" fill="#79A899" transform="translate(910.386719, 183.050781) scale(-1, 1) rotate(180.000000) translate(-910.386719, -183.050781) "></path>
                    <rect id="Rectangle-Copy-44" fill="#D14D3C" transform="translate(910.386719, 131.050781) scale(-1, 1) rotate(180.000000) translate(-910.386719, -131.050781) " x="884.386719" y="105.050781" width="52" height="52"></rect>
                    <rect id="Rectangle-Copy-78" fill="#012345" transform="translate(1170.355469, 183.214844) scale(-1, 1) rotate(-180.000000) translate(-1170.355469, -183.214844) " x="1144.35547" y="157.214844" width="52" height="52"></rect>
                    <path d="M1196.35547,314.214844 L1196.35547,314.214844 L1196.35547,314.214844 L1196.35547,366.214844 L1144.35547,366.214844 C1144.35547,337.496037 1167.63666,314.214844 1196.35547,314.214844 Z" id="Rectangle-Copy-71" fill="#ED8750" transform="translate(1170.355469, 340.214844) scale(-1, 1) rotate(-180.000000) translate(-1170.355469, -340.214844) "></path>
                    <path d="M1144.35547,209.214844 L1144.35547,209.214844 L1144.35547,209.214844 L1144.35547,261.214844 L1092.35547,261.214844 C1092.35547,232.496037 1115.63666,209.214844 1144.35547,209.214844 Z" id="Rectangle-Copy-79" fill="#79A899" transform="translate(1118.355469, 235.214844) scale(-1, 1) rotate(-180.000000) translate(-1118.355469, -235.214844) "></path>
                    <rect id="Rectangle-Copy-42" fill="#ED8750" transform="translate(1118.355469, 79.214844) scale(-1, 1) rotate(-180.000000) translate(-1118.355469, -79.214844) " x="1092.35547" y="53.2148438" width="52" height="52"></rect>
                    <path d="M1092.35547,1.21484375 C1121.07428,1.21484375 1144.35547,24.4960368 1144.35547,53.2148438 L1144.35547,53.2148438 L1144.35547,53.2148438 L1092.35547,53.2148438 L1092.35547,1.21484375 Z" id="Rectangle-Copy-80" fill="#DE6A45" transform="translate(1118.355469, 27.214844) scale(-1, 1) rotate(-180.000000) translate(-1118.355469, -27.214844) "></path>
                    <path d="M1092.35547,105.214844 L1144.35547,105.214844 C1144.35547,133.933651 1121.07428,157.214844 1092.35547,157.214844 L1092.35547,157.214844 L1092.35547,157.214844 L1092.35547,105.214844 Z" id="Rectangle-Copy-81" fill="#FFFFFF" transform="translate(1118.355469, 131.214844) scale(-1, 1) rotate(-180.000000) translate(-1118.355469, -131.214844) "></path>
                    <path d="M1248.35547,157.214844 L1248.35547,157.214844 L1248.35547,157.214844 L1248.35547,209.214844 L1196.35547,209.214844 C1196.35547,180.496037 1219.63666,157.214844 1248.35547,157.214844 Z" id="Rectangle-Copy-82" fill="#79A899" transform="translate(1222.355469, 183.214844) scale(-1, 1) rotate(-180.000000) translate(-1222.355469, -183.214844) "></path>
                    <rect id="Rectangle-Copy-44" fill="#D14D3C" transform="translate(1222.355469, 131.214844) scale(-1, 1) rotate(-180.000000) translate(-1222.355469, -131.214844) " x="1196.35547" y="105.214844" width="52" height="52"></rect>
                    <path d="M1039.96875,53.1640625 L1091.96875,53.1640625 C1091.96875,81.8828695 1068.68756,105.164062 1039.96875,105.164062 L1039.96875,105.164062 L1039.96875,105.164062 L1039.96875,53.1640625 Z" id="Rectangle-Copy-77" fill="#D14D3C" transform="translate(1065.968750, 79.164062) scale(-1, 1) translate(-1065.968750, -79.164062) "></path>
                    <path d="M1039.96875,261.164062 L1039.96875,261.164062 L1039.96875,261.164062 L1039.96875,313.164062 L987.96875,313.164062 C987.96875,284.445256 1011.24994,261.164062 1039.96875,261.164062 Z" id="Rectangle-Copy-70" fill="#79A899" transform="translate(1013.968750, 287.164062) scale(-1, 1) translate(-1013.968750, -287.164062) "></path>
                    <path d="M1091.96875,105.164062 L1091.96875,105.164062 L1091.96875,105.164062 L1091.96875,157.164062 L1039.96875,157.164062 C1039.96875,128.445256 1063.24994,105.164062 1091.96875,105.164062 Z" id="Rectangle-Copy-79" fill="#79A899" transform="translate(1065.968750, 131.164062) scale(-1, 1) translate(-1065.968750, -131.164062) "></path>
                    <rect id="Rectangle-Copy-42" fill="#ED8750" transform="translate(1065.968750, 287.164062) scale(-1, 1) translate(-1065.968750, -287.164062) " x="1039.96875" y="261.164062" width="52" height="52"></rect>
                    <path d="M1039.96875,313.164062 C1068.68756,313.164062 1091.96875,336.445256 1091.96875,365.164062 L1091.96875,365.164062 L1091.96875,365.164062 L1039.96875,365.164062 L1039.96875,313.164062 Z" id="Rectangle-Copy-80" fill="#DE6A45" transform="translate(1065.968750, 339.164062) scale(-1, 1) translate(-1065.968750, -339.164062) "></path>
                    <path d="M987,159.214844 L1039,159.214844 C1039,187.933651 1015.71881,211.214844 987,211.214844 L987,211.214844 L987,211.214844 L987,159.214844 Z" id="Rectangle-Copy-81" fill="#FFFFFF" transform="translate(1013.000000, 185.214844) scale(-1, 1) translate(-1013.000000, -185.214844) "></path>
                    <rect id="Rectangle-Copy-44" fill="#D14D3C" transform="translate(961.968750, 235.164063) scale(-1, 1) translate(-961.968750, -235.164063) " x="935.96875" y="209.164063" width="52" height="52"></rect>
                    <rect id="Rectangle-Copy-75" fill="#012345" x="1336" y="172.214844" width="52" height="52"></rect>
                    <path d="M1388,329.214844 L1388,329.214844 L1388,329.214844 L1388,381.214844 L1336,381.214844 C1336,352.496037 1359.28119,329.214844 1388,329.214844 Z" id="Rectangle-Copy-65" fill="#ED8750"></path>
                    <path d="M1336,235.214844 L1336,235.214844 L1336,235.214844 L1336,287.214844 L1284,287.214844 C1284,258.496037 1307.28119,235.214844 1336,235.214844 Z" id="Rectangle-Copy-66" fill="#79A899"></path>
                    <rect id="Rectangle-Copy-6" fill="#D14D3C" x="1284" y="79.2148438" width="52" height="52"></rect>
                    <path d="M1284,27.2148438 C1312.71881,27.2148437 1336,50.4960368 1336,79.2148438 L1336,79.2148438 L1336,79.2148438 L1284,79.2148438 L1284,27.2148438 Z" id="Rectangle-Copy-72" fill="#DE6A45"></path>
                    <path d="M1284,131.214844 L1336,131.214844 C1336,159.933651 1312.71881,183.214844 1284,183.214844 L1284,183.214844 L1284,183.214844 L1284,131.214844 Z" id="Rectangle-Copy-73" fill="#FFFFFF"></path>
                    <path d="M1440,133.214844 L1440,133.214844 L1440,133.214844 L1440,185.214844 L1388,185.214844 C1388,156.496037 1411.28119,133.214844 1440,133.214844 Z" id="Rectangle-Copy-76" fill="#79A899"></path>
                    <rect id="Rectangle-Copy-7" fill="#EAB45B" x="1388" y="81.2148438" width="52" height="52"></rect>
                </g>
            </g>
        </g>
    </g>
</svg>